<svg width="500" height="200" xmlns="http://www.w3.org/2000/svg">
       <text x="10" y="20">Which figure completes the series?</text>
       
       <!-- Series -->
       <rect x="10" y="40" width="60" height="60" fill="none" stroke="black" />
       <circle cx="40" cy="70" r="10" fill="black" />
       
       <rect x="90" y="40" width="60" height="60" fill="none" stroke="black" />
       <circle cx="120" cy="70" r="15" fill="black" />
       
       <rect x="170" y="40" width="60" height="60" fill="none" stroke="black" />
       <circle cx="200" cy="70" r="20" fill="black" />
       
       <rect x="250" y="40" width="60" height="60" fill="none" stroke="black" stroke-dasharray="4" />
       <text x="275" y="75">?</text>
       
       <!-- Options -->
       <text x="10" y="140">A.</text>
       <rect x="30" y="120" width="40" height="40" fill="none" stroke="black" />
       <circle cx="50" cy="140" r="25" fill="black" />
       
       <text x="100" y="140">B.</text>
       <rect x="120" y="120" width="40" height="40" fill="none" stroke="black" />
       <circle cx="140" cy="140" r="5" fill="black" />
       
       <text x="190" y="140">C.</text>
       <rect x="210" y="120" width="40" height="40" fill="none" stroke="black" />
       <rect x="220" y="130" width="20" height="20" fill="black" />
       
       <text x="280" y="140">D.</text>
       <rect x="300" y="120" width="40" height="40" fill="none" stroke="black" />
       <circle cx="320" cy="140" r="15" fill="white" stroke="black" />
    </svg>