<svg width="170" height="170" xmlns="http://www.w3.org/2000/svg"><rect x="10" y="10" width="30" height="30" fill="none" stroke="black"/><rect x="40" y="10" width="30" height="30" fill="none" stroke="black"/><rect x="70" y="10" width="30" height="30" fill="none" stroke="black"/><rect x="100" y="10" width="30" height="30" fill="none" stroke="black"/><rect x="130" y="10" width="30" height="30" fill="none" stroke="black"/><rect x="10" y="40" width="30" height="30" fill="none" stroke="black"/><rect x="40" y="40" width="30" height="30" fill="none" stroke="black"/><rect x="70" y="40" width="30" height="30" fill="none" stroke="black"/><rect x="100" y="40" width="30" height="30" fill="none" stroke="black"/><rect x="130" y="40" width="30" height="30" fill="none" stroke="black"/><rect x="10" y="70" width="30" height="30" fill="none" stroke="black"/><rect x="40" y="70" width="30" height="30" fill="none" stroke="black"/><rect x="70" y="70" width="30" height="30" fill="none" stroke="black"/><rect x="100" y="70" width="30" height="30" fill="none" stroke="black"/><rect x="130" y="70" width="30" height="30" fill="none" stroke="black"/><rect x="10" y="100" width="30" height="30" fill="none" stroke="black"/><rect x="40" y="100" width="30" height="30" fill="none" stroke="black"/><rect x="70" y="100" width="30" height="30" fill="none" stroke="black"/><rect x="100" y="100" width="30" height="30" fill="none" stroke="black"/><rect x="130" y="100" width="30" height="30" fill="none" stroke="black"/><rect x="10" y="130" width="30" height="30" fill="none" stroke="black"/><rect x="40" y="130" width="30" height="30" fill="none" stroke="black"/><rect x="70" y="130" width="30" height="30" fill="none" stroke="black"/><rect x="100" y="130" width="30" height="30" fill="none" stroke="black"/><rect x="130" y="130" width="30" height="30" fill="none" stroke="black"/></svg>