<svg width="300" height="200" xmlns="http://www.w3.org/2000/svg">
    <!-- Stack Push/Pop -->
    <text x="100" y="20" font-weight="bold">Stack Operations</text>
    <path d="M 120,180 L 120,60 M 180,180 L 180,60 M 120,180 L 180,180" fill="none" stroke="black" stroke-width="3"/>
    <rect x="125" y="140" width="50" height="30" fill="lightblue" stroke="black"/>
    <text x="145" y="160">A</text>
    <rect x="125" y="100" width="50" height="30" fill="lightblue" stroke="black"/>
    <text x="145" y="120">B</text>
    
    <path d="M 60,60 C 60,30 110,30 135,55" fill="none" stroke="green" stroke-width="2" marker-end="url(#arrowG)"/>
    <text x="50" y="45" fill="green">Push(C)</text>
    
    <path d="M 165,55 C 190,30 240,30 240,60" fill="none" stroke="red" stroke-width="2" marker-end="url(#arrowR)"/>
    <text x="210" y="45" fill="red">Pop()</text>
    
    <defs>
        <marker id="arrowG" markerWidth="10" markerHeight="10" refX="9" refY="3" orient="auto" markerUnits="strokeWidth">
        <path d="M0,0 L0,6 L9,3 z" fill="green" />
        </marker>
        <marker id="arrowR" markerWidth="10" markerHeight="10" refX="9" refY="3" orient="auto" markerUnits="strokeWidth">
        <path d="M0,0 L0,6 L9,3 z" fill="red" />
        </marker>
    </defs>
</svg>